# xmcd CD database file
#
# Track frame offsets:
#	150
#	2685
#	13995
#	25045
#	36005
#	53925
#	57895
#	72280
#	84310
#	95475
#	106455
#	115205
#	123090
#	133660
#	145390
#	155340
#	167045
#	180110
#	189640
#	202080
#	208260
#	219050
#	222480
#
# Disc length: 3077 seconds
#
# Revision: 0
# Processed by: cddbd v1.5.2PL0 Copyright (c) Steve Scherf et al.
# Submitted via: CDex 1.51
#
DISCID=450c0317
DTITLE=Na 2 zapady and Jakub Safr Quartet feat. Stanislav Zindulka - Blues nocni cekarny (Pisne Josefa Kainara)
DYEAR=2007
DGENRE=Blues
TTITLE0=Prolog
TTITLE1=Blues nocni cekarny
TTITLE2=Penize z nebe
TTITLE3=Blues zeleznicniho mostu
TTITLE4=Kornet stribrny
TTITLE5=O blues
TTITLE6=Bledej gentleman
TTITLE7=Mrtvy vrabec
TTITLE8=Amore, ty darebaku
TTITLE9=Dve loutny
TTITLE10=Jan miluje Lenku
TTITLE11=Diga diga dou
TTITLE12=Markyza a kral
TTITLE13=Povez mi, panose
TTITLE14=Svata valka
TTITLE15=Flanderska pisen
TTITLE16=Koleda vsetinska
TTITLE17=Ja bych si rad najal dum
TTITLE18=Ve vedlejsim dome
TTITLE19=Basa v patem poschodi
TTITLE20=Stribrna reka
TTITLE21=Epitaf
TTITLE22=Stary muz
EXTD=YEAR: 2007
EXTT0=
EXTT1=
EXTT2=
EXTT3=
EXTT4=
EXTT5=
EXTT6=
EXTT7=
EXTT8=
EXTT9=
EXTT10=
EXTT11=
EXTT12=
EXTT13=
EXTT14=
EXTT15=
EXTT16=
EXTT17=
EXTT18=
EXTT19=
EXTT20=
EXTT21=
EXTT22=
PLAYORDER=
